<?xml version="1.0" encoding="utf-8"?>
<!DOCTYPE svg PUBLIC "-//W3C//DTD SVG 1.0//EN" "http://www.w3.org/TR/2001/REC-SVG-20010904/DTD/svg10.dtd">
<svg version="1.0" xmlns="http://www.w3.org/2000/svg" width="272px" height="268px" viewBox="0 0 272 268" preserveAspectRatio="xMidYMid meet">
 <g fill="#081a2e">
  <path d="M126.5 253.4 c-9.2 -1.3 -14.5 -3.2 -27.8 -9.7 -7.7 -3.8 -11.4 -6.4 -17.1 -12 -8.2 -8.1 -12.7 -14.3 -14.6 -20.2 -0.7 -2.2 -1.6 -5 -2.1 -6.3 -0.5 -1.3 -0.9 -4.3 -0.9 -6.7 0 -6.8 -2.5 -6 -4.7 1.5 -1.9 6.3 -2.6 7.2 -3.7 4.3 -4.2 -11.9 -5.4 -17.2 -6 -26.3 l-0.5 -8.5 -6 0.3 c-24.1 1.4 -40.3 -26.3 -31.4 -53.8 1.2 -3.8 3.2 -6.9 6.3 -10.1 5.6 -5.6 11.3 -7.5 20.4 -6.5 l6.4 0.6 0.7 -3.1 c1.4 -6.1 6.4 -16.8 11.3 -24.1 11.7 -17.2 29.6 -30.2 48 -34.7 2.3 -0.6 5.9 -1.5 8.1 -2.1 2.1 -0.5 5.7 -1 8 -1 5.8 0 5.5 -2.6 -0.9 -6.9 -2.8 -1.9 -5 -3.8 -5 -4.3 0 -1.3 8.9 -0.9 14.5 0.6 6.5 1.7 12.4 4.8 15.4 8 3.6 3.8 4.4 3.3 3.6 -2.4 -0.6 -4.6 -0.5 -5 1.2 -4.3 3.3 1.2 8.7 5 11.7 8.1 1.8 2 5.3 3.9 9.4 5.2 3.5 1.2 8.5 3.1 11.1 4.2 20.4 9.5 42.1 34.8 45.7 53.5 l0.6 3.3 6.9 -0.6 c12.7 -1.2 21.5 3.6 26.6 14.4 2.3 5 2.6 7 2.7 16.7 0.1 14.6 -2.5 21.8 -10.9 30.1 -6.6 6.6 -14.4 9.7 -23 9.2 l-6 -0.3 -0.2 5.5 c-0.3 9.7 -2.6 21 -5.5 27.9 l-1.4 3.5 -2.3 -6.2 c-2.6 -7.2 -5.1 -8.4 -5.1 -2.4 0 9.2 -4.2 18.8 -12.5 28.5 -10.4 12.1 -24.6 20.6 -42.4 25.3 -5.5 1.5 -23.3 2.6 -28.6 1.8z m20 -17.9 c16.3 -3.4 29.5 -13.3 36.1 -27.2 3.1 -6.4 3.6 -8.5 3.6 -14.7 0 -7.8 -3 -16 -9.1 -25 -2 -2.8 -3.1 -5.7 -3.1 -7.8 0 -3.1 0.5 -3.5 6 -6.1 15.3 -7.1 25.2 -25.4 20.9 -38.8 -2 -6.4 -5.1 -11.7 -9.1 -15.8 -11.7 -11.7 -28.6 -12.5 -45.9 -1.9 -6.1 3.7 -10.8 3.7 -17 -0.2 -21.3 -13.1 -43.4 -7.9 -53.5 12.5 -2.3 4.8 -2.9 7.3 -2.9 12.5 0 12.4 9.3 26 21.6 31.8 5.5 2.5 5.9 2.9 5.9 6.2 0 2.2 -1 5 -2.6 7.4 -13.5 19.8 -11.8 38.8 4.9 54.2 6.8 6.3 15.4 10.7 25 12.8 8.2 1.8 10.9 1.8 19.2 0.1z m-105 -81.7 c-0.4 -1.3 -0.9 -6.1 -1.1 -10.7 -0.2 -4.7 -0.8 -8.9 -1.3 -9.4 -1.5 -1.5 -4 -0.1 -5.9 3.3 -1.3 2.4 -2.4 3 -4.9 3 l-3.3 0 0 -7.7 c0 -9.5 2 -13.5 8.1 -16.2 3 -1.4 3.6 -2 2.4 -2.5 -2.6 -1 -3.1 -0.8 -6.5 2 -4.7 4 -6.3 8 -6.3 15.4 0 4.7 0.7 8 2.5 12 3.1 7 9.6 13 13.9 13 2.8 0 3.1 -0.2 2.4 -2.2z m200.6 -1.5 c3.4 -3.1 7.9 -9.8 7.9 -11.8 0 -0.3 -1.8 -0.5 -4 -0.5 -2.4 0 -4 -0.5 -4 -1.2 0 -1.6 -4.1 -5.8 -5.6 -5.8 -2.3 0 -3.4 3.7 -3.4 11.9 0 4.4 -0.5 8.3 -1 8.6 -1.8 1.1 0 2.5 3.1 2.5 1.9 0 4.2 -1.2 7 -3.7z m9 -26.6 c-1.2 -5.4 -6.8 -12.7 -9.6 -12.7 -4.2 0 -4.3 1.3 -0.3 3.4 5.6 2.8 7.9 7.1 8.6 15.9 l0.6 7.2 0.9 -4.3 c0.7 -2.9 0.6 -5.9 -0.2 -9.5z"/>
  <path d="M122 212.5 c-8.3 -1.9 -16.9 -5.2 -21.2 -8.1 -3.4 -2.4 -3.8 -3.1 -3.8 -7 l0 -4.4 4 0 c2.2 0 7.3 0.9 11.4 2 18.9 5.2 30.1 5.4 47.1 0.8 4.4 -1.2 10.3 -2.2 13 -2.2 l5 -0.1 0.3 3.5 c0.4 4.3 -1.8 6.6 -9.5 10.4 -12 6.1 -32.2 8.3 -46.3 5.1z"/>
  <path d="M130 173.4 c0 -0.5 -2 -2.2 -4.5 -3.7 -6.1 -3.9 -8.5 -7.2 -8.5 -11.6 0 -4.8 1.4 -6.1 6.9 -6.1 5.1 0 10.3 2.6 12.2 6.1 l1.2 2.2 1.1 -2.2 c1.9 -3.5 6.7 -6.1 11.3 -6.1 6.7 0 7.3 0.5 7.3 6.5 0 5.8 -0.4 6.4 -9.2 12 -3.8 2.4 -17.8 4.7 -17.8 2.9z"/>
  <path d="M97.8 146.4 c-3.9 -2.1 -6.8 -8.3 -6.8 -14.4 0 -10.4 5 -16.1 15 -16.8 6.3 -0.5 9.9 0.9 14 5.3 2.1 2.2 2.5 3.8 2.8 9.9 0.5 8.6 -1.1 12.6 -6.1 15.6 -4 2.5 -14.8 2.7 -18.9 0.4z m12 -13.6 c1.5 -1.5 1.5 -5.1 0 -6.6 -2 -2 -4.8 -1.4 -6 1.3 -0.9 2.1 -0.8 2.8 0.7 4.5 2.1 2.3 3.6 2.5 5.3 0.8z"/>
  <path d="M157.3 146 c-1.8 -1 -3.9 -3.3 -4.8 -4.9 -2 -3.9 -2 -15.2 0 -19.1 3.4 -6.6 15.3 -9.1 23 -4.7 5 2.8 7.5 7.6 7.5 14.5 0 6.6 -2.3 11.8 -6.4 14.3 -4.3 2.7 -14.9 2.6 -19.3 -0.1z m12 -14.1 c0.5 -0.9 0.7 -2.8 0.3 -4.3 -0.5 -2.2 -1.1 -2.7 -3.4 -2.4 -2.1 0.2 -2.8 0.9 -3 3.1 -0.6 5 3.7 7.5 6.1 3.6z"/>
 </g>
 <g fill="#ee9833">
  <path d="M124.3 238.4 c-9.6 -2.1 -18.2 -6.5 -25 -12.8 -10.7 -9.9 -14.9 -20.2 -14.1 -34.5 0.6 -9.2 3 -16.1 9 -25.4 1.7 -2.6 2.9 -4.9 2.7 -5.1 -0.2 -0.1 -3 -1.5 -6.1 -3 -7.6 -3.6 -13.9 -10.1 -18 -18.4 -3 -6.1 -3.3 -7.4 -3.3 -16.2 0 -8.5 0.3 -10.1 2.9 -15.5 6.7 -13.5 17.2 -19.9 33.1 -19.9 10.2 0 17.9 2.2 26.7 7.6 5.1 3.2 5.1 3.2 8.2 1.3 8 -4.6 13.3 -6.8 20.4 -8.2 20.5 -4.2 36.9 5.2 43.1 24.6 1.4 4.4 1.4 15.8 0 20.2 -3.5 11 -10.9 19.8 -20.6 24.5 -3.2 1.5 -6 2.9 -6.1 3 -0.2 0.1 1 2.3 2.8 4.9 1.7 2.5 4.6 7.6 6.3 11.3 2.7 6 3 7.7 3.1 16.7 0 9.5 -0.2 10.4 -3.7 17.6 -10.3 21.5 -36 32.9 -61.4 27.3z m28 -29.4 c8.6 -2.2 16.9 -5.9 20.5 -9.3 3.6 -3.3 1.2 -4.1 -6.4 -1.8 -20.5 6 -35.9 6 -57.1 0.1 -8.6 -2.4 -9.3 -2.4 -9.3 -0.6 0 1.9 6.7 6.3 13.6 8.7 14.3 5.2 26.2 6 38.7 2.9z m-17.3 -41 c0 -4.3 -2.5 -8.7 -6.3 -11 -3.8 -2.4 -6 -2.5 -7.7 -0.5 -1.7 2.1 0.6 5.5 6.7 9.6 2.7 1.8 5 3.6 5.1 4.1 0.8 1.9 2.2 0.5 2.2 -2.2z m9.7 -0.4 c7.3 -4.7 9.3 -6.7 9.3 -9.2 0 -3.3 -3.9 -4.2 -8.1 -1.7 -3.5 2 -7 8.4 -6.2 11.4 0.7 2.4 0.5 2.4 5 -0.5z m-31 -24.6 c9.2 -5.5 8 -18.4 -2.1 -23.7 -3.9 -2.1 -8.8 -0.9 -13 3 -11.3 10.7 1.9 28.8 15.1 20.7z m59.9 0.1 c6.1 -3.7 7.9 -12.6 3.9 -18.7 -1.6 -2.5 -8.3 -6.4 -11 -6.4 -3.1 0 -9.5 4.1 -11 7 -6.1 11.9 6.9 25 18.1 18.1z"/>
  <path d="M35.7 158.9 c-5 -0.8 -10.2 -5.9 -13.5 -12.9 -2.2 -4.7 -2.6 -7 -2.6 -15 0 -10.6 1.2 -13.9 6.4 -18.4 2.4 -2 4.3 -2.6 7.7 -2.6 3.9 0 5 0.5 8.1 3.7 l3.7 3.8 -4.5 0.5 c-8.8 1.1 -13 5.8 -13 14.5 l0 5 2 -3.2 c3.1 -5.2 7.7 -6.7 11.6 -3.9 1.6 1.2 1.9 2.7 1.9 9.8 0 6.9 0.4 9 2.3 12.2 2.2 3.8 2.3 4 0.5 5 -2.8 1.7 -6.5 2.2 -10.6 1.5z"/>
  <path d="M231.7 159 c-5.5 -1 -6.2 -2.1 -3.8 -6.4 1.6 -2.8 2.1 -5.4 2.1 -11.6 0 -8.9 1.7 -12 6.4 -12 2.8 0 8.6 4.5 8.6 6.6 0 0.8 0.5 1.4 1.1 1.4 1.6 0 0.4 -8 -1.6 -12.1 -2.2 -4.2 -7.2 -7.1 -11.7 -6.7 -2.1 0.2 -3.8 0 -3.8 -0.5 0 -0.5 1.5 -2.4 3.4 -4.3 3 -3 4 -3.4 8.4 -3.4 4.4 0 5.4 0.4 8.5 3.7 8.8 9 7.1 30.6 -3.2 40.7 -4.2 4.2 -8.7 5.5 -14.4 4.6z"/>
 </g>
</svg>